# xmcd
#
# Track frame offsets:
#	150
#	13952
#	25970
#	37457
#	51162
#	64062
#	77395
#	89935
#	103182
#	113820
#
# Disc length: 1708
#
# Revision: 1
# Processed by: cddbd v1.5.1PL0 Copyright (c) Steve Scherf et al.
# Submitted via: dBpowerAMP V4.0
# Normalized: r0:TDELIM( - )
#
DISCID=8c06aa0a
DTITLE=Heart of Country - Branded Country
DYEAR=2000
DGENRE=Country
TTITLE0=Willie Nelson - You'll Always Have Someone
TTITLE1=Donna Fargo - The Happiest Girl in The World
TTITLE2=Frankie Laine - Rose, Rose I Love You
TTITLE3=Deborah Allen - I've Been Wrong Before
TTITLE4=Johnny Paycheck - She's All I Got
TTITLE5=Margo Smith - Don't Break The Heart That Loves You
TTITLE6=Lynn Anderson - Stand By Your Man
TTITLE7=Freddy Fender - Mexican Rose
TTITLE8=Patsy Cline - Three Cigarettes In An Ashtray
TTITLE9=Conway Twitty - I Need Your Lovin'
EXTD=
EXTT0=
EXTT1=
EXTT2=
EXTT3=
EXTT4=
EXTT5=
EXTT6=
EXTT7=
EXTT8=
EXTT9=
PLAYORDER=
